<svg width="268" height="36" viewBox="0 0 268 36" fill="none" xmlns="http://www.w3.org/2000/svg">
<path d="M17.5805 6.07562C17.8811 5.65123 18.5474 5.82977 18.5955 6.34759L19.1145 11.9356C19.1296 12.0984 19.2151 12.2464 19.3486 12.3409L23.9284 15.5844C24.3528 15.8849 24.1742 16.5512 23.6564 16.5993L18.0685 17.1183C17.9057 17.1334 17.7576 17.2189 17.6631 17.3524L14.4196 21.9322C14.1191 22.3566 13.4528 22.178 13.4047 21.6602L12.8857 16.0723C12.8706 15.9095 12.7851 15.7614 12.6516 15.6669L8.07182 12.4235C7.64742 12.1229 7.82596 11.4566 8.34378 11.4085L13.9317 10.8895C14.0945 10.8744 14.2426 10.7889 14.3371 10.6555L17.5805 6.07562Z" fill="currentColor"/>
<path d="M29.6016 18.437C29.6292 18.7918 29.6445 19.1504 29.6445 19.5122C29.6445 27.0477 23.5355 33.1567 16 33.1568C8.46446 33.1568 2.35552 27.0478 2.35547 19.5122C2.35547 19.1504 2.36981 18.7918 2.39746 18.437C4.67681 23.6902 9.90873 27.3648 16 27.3648C22.0911 27.3648 27.3221 23.69 29.6016 18.437Z" fill="currentColor"/>
<path d="M44.0091 32V4H48.0091L62.2891 25.48V4H66.2891V32H62.2891L48.0091 10.56V32H44.0091ZM78.6141 32.48C76.9608 32.48 75.5874 32.2 74.4941 31.64C73.4008 31.08 72.5874 30.3333 72.0541 29.4C71.5208 28.44 71.2541 27.4133 71.2541 26.32C71.2541 24.9867 71.6008 23.8533 72.2941 22.92C72.9874 21.96 73.9741 21.2267 75.2541 20.72C76.5341 20.2133 78.0674 19.96 79.8541 19.96H85.0941C85.0941 18.7867 84.9208 17.8133 84.5741 17.04C84.2274 16.2667 83.7074 15.6933 83.0141 15.32C82.3474 14.92 81.4941 14.72 80.4541 14.72C79.2541 14.72 78.2274 15.0133 77.3741 15.6C76.5208 16.16 75.9874 17 75.7741 18.12H71.7741C71.9341 16.7067 72.4141 15.5067 73.2141 14.52C74.0408 13.5067 75.0941 12.7333 76.3741 12.2C77.6541 11.64 79.0141 11.36 80.4541 11.36C82.3474 11.36 83.9341 11.6933 85.2141 12.36C86.4941 13.0267 87.4541 13.9733 88.0941 15.2C88.7608 16.4 89.0941 17.84 89.0941 19.52V32H85.6141L85.2941 28.6C85.0008 29.1333 84.6541 29.64 84.2541 30.12C83.8541 30.6 83.3741 31.0133 82.8141 31.36C82.2808 31.7067 81.6541 31.9733 80.9341 32.16C80.2408 32.3733 79.4674 32.48 78.6141 32.48ZM79.3741 29.24C80.2274 29.24 81.0008 29.0667 81.6941 28.72C82.3874 28.3733 82.9741 27.9067 83.4541 27.32C83.9608 26.7067 84.3341 26.0267 84.5741 25.28C84.8408 24.5067 84.9874 23.72 85.0141 22.92V22.8H80.2541C79.1074 22.8 78.1741 22.9467 77.4541 23.24C76.7608 23.5067 76.2541 23.88 75.9341 24.36C75.6141 24.84 75.4541 25.4 75.4541 26.04C75.4541 26.7067 75.6008 27.28 75.8941 27.76C76.2141 28.2133 76.6674 28.5733 77.2541 28.84C77.8408 29.1067 78.5474 29.24 79.3741 29.24ZM94.1997 32V11.84H97.7997L98.0397 15.28C98.6797 14.08 99.5864 13.1333 100.76 12.44C101.933 11.72 103.28 11.36 104.8 11.36C106.4 11.36 107.773 11.68 108.92 12.32C110.066 12.96 110.96 13.9333 111.6 15.24C112.24 16.52 112.56 18.1333 112.56 20.08V32H108.56V20.48C108.56 18.6133 108.146 17.2 107.32 16.24C106.493 15.28 105.293 14.8 103.72 14.8C102.68 14.8 101.746 15.0533 100.92 15.56C100.093 16.04 99.4264 16.76 98.9197 17.72C98.4397 18.68 98.1997 19.8533 98.1997 21.24V32H94.1997ZM126.876 32.48C124.983 32.48 123.276 32.04 121.756 31.16C120.263 30.28 119.076 29.0533 118.196 27.48C117.343 25.88 116.916 24.04 116.916 21.96C116.916 19.8267 117.356 17.9733 118.236 16.4C119.116 14.8 120.316 13.56 121.836 12.68C123.356 11.8 125.063 11.36 126.956 11.36C128.876 11.36 130.583 11.8 132.076 12.68C133.57 13.56 134.743 14.7867 135.596 16.36C136.476 17.9333 136.916 19.7867 136.916 21.92C136.916 24.0533 136.476 25.9067 135.596 27.48C134.743 29.0533 133.556 30.28 132.036 31.16C130.516 32.04 128.796 32.48 126.876 32.48ZM126.876 29.04C127.97 29.04 128.956 28.7733 129.836 28.24C130.743 27.7067 131.463 26.92 131.996 25.88C132.556 24.8133 132.836 23.4933 132.836 21.92C132.836 20.3467 132.57 19.04 132.036 18C131.503 16.9333 130.783 16.1333 129.876 15.6C128.996 15.0667 128.023 14.8 126.956 14.8C125.89 14.8 124.903 15.0667 123.996 15.6C123.09 16.1333 122.356 16.9333 121.796 18C121.263 19.04 120.996 20.3467 120.996 21.92C120.996 23.4933 121.263 24.8133 121.796 25.88C122.356 26.92 123.076 27.7067 123.956 28.24C124.863 28.7733 125.836 29.04 126.876 29.04ZM141.822 32V4H151.382C153.622 4 155.462 4.37333 156.902 5.12C158.342 5.86666 159.408 6.86667 160.102 8.12C160.795 9.37333 161.142 10.8 161.142 12.4C161.142 13.92 160.795 15.32 160.102 16.6C159.435 17.8533 158.382 18.8667 156.942 19.64C155.502 20.3867 153.648 20.76 151.382 20.76H145.822V32H141.822ZM145.822 17.44H151.222C153.328 17.44 154.822 16.9867 155.702 16.08C156.608 15.1467 157.062 13.92 157.062 12.4C157.062 10.7733 156.608 9.52 155.702 8.64C154.822 7.76 153.328 7.32 151.222 7.32H145.822V17.44ZM173.322 32.48C171.428 32.48 169.722 32.04 168.202 31.16C166.708 30.28 165.522 29.0533 164.642 27.48C163.788 25.88 163.362 24.04 163.362 21.96C163.362 19.8267 163.802 17.9733 164.682 16.4C165.562 14.8 166.762 13.56 168.282 12.68C169.802 11.8 171.508 11.36 173.402 11.36C175.322 11.36 177.028 11.8 178.522 12.68C180.015 13.56 181.188 14.7867 182.042 16.36C182.922 17.9333 183.362 19.7867 183.362 21.92C183.362 24.0533 182.922 25.9067 182.042 27.48C181.188 29.0533 180.002 30.28 178.482 31.16C176.962 32.04 175.242 32.48 173.322 32.48ZM173.322 29.04C174.415 29.04 175.402 28.7733 176.282 28.24C177.188 27.7067 177.908 26.92 178.442 25.88C179.002 24.8133 179.282 23.4933 179.282 21.92C179.282 20.3467 179.015 19.04 178.482 18C177.948 16.9333 177.228 16.1333 176.322 15.6C175.442 15.0667 174.468 14.8 173.402 14.8C172.335 14.8 171.348 15.0667 170.442 15.6C169.535 16.1333 168.802 16.9333 168.242 18C167.708 19.04 167.442 20.3467 167.442 21.92C167.442 23.4933 167.708 24.8133 168.242 25.88C168.802 26.92 169.522 27.7067 170.402 28.24C171.308 28.7733 172.282 29.04 173.322 29.04ZM197.387 32.48C195.44 32.48 193.707 32.04 192.187 31.16C190.667 30.2533 189.467 29.0133 188.587 27.44C187.734 25.8667 187.307 24.04 187.307 21.96C187.307 19.8533 187.734 18.0133 188.587 16.44C189.467 14.84 190.667 13.6 192.187 12.72C193.707 11.8133 195.44 11.36 197.387 11.36C199.84 11.36 201.894 12 203.547 13.28C205.2 14.56 206.254 16.2933 206.707 18.48H202.547C202.28 17.3067 201.667 16.4 200.707 15.76C199.774 15.12 198.654 14.8 197.347 14.8C196.28 14.8 195.294 15.08 194.387 15.64C193.48 16.1733 192.747 16.9733 192.187 18.04C191.654 19.08 191.387 20.3733 191.387 21.92C191.387 23.0667 191.547 24.0933 191.867 25C192.187 25.88 192.614 26.6267 193.147 27.24C193.707 27.8533 194.347 28.32 195.067 28.64C195.787 28.9333 196.547 29.08 197.347 29.08C198.227 29.08 199.014 28.9467 199.707 28.68C200.427 28.3867 201.027 27.96 201.507 27.4C202.014 26.84 202.36 26.1733 202.547 25.4H206.707C206.254 27.5333 205.2 29.2533 203.547 30.56C201.894 31.84 199.84 32.48 197.387 32.48ZM224.067 32L214.787 20.96L223.187 11.84H228.027L218.027 22.52V19.52L229.107 32H224.067ZM211.387 32V3.2H215.387V32H211.387ZM240.078 32.48C238.158 32.48 236.451 32.04 234.958 31.16C233.464 30.28 232.291 29.0533 231.438 27.48C230.611 25.9067 230.198 24.08 230.198 22C230.198 19.8667 230.611 18.0133 231.438 16.44C232.291 14.84 233.464 13.6 234.958 12.72C236.451 11.8133 238.184 11.36 240.158 11.36C242.131 11.36 243.824 11.8 245.238 12.68C246.651 13.56 247.744 14.7333 248.518 16.2C249.291 17.64 249.678 19.24 249.678 21C249.678 21.2667 249.664 21.56 249.638 21.88C249.638 22.1733 249.624 22.5067 249.598 22.88H233.118V20.04H245.678C245.598 18.36 245.038 17.0533 243.998 16.12C242.958 15.16 241.664 14.68 240.118 14.68C239.024 14.68 238.024 14.9333 237.118 15.44C236.211 15.92 235.478 16.64 234.918 17.6C234.384 18.5333 234.118 19.72 234.118 21.16V22.28C234.118 23.7733 234.384 25.04 234.918 26.08C235.478 27.0933 236.211 27.8667 237.118 28.4C238.024 28.9067 239.011 29.16 240.078 29.16C241.358 29.16 242.411 28.88 243.238 28.32C244.064 27.76 244.678 27 245.078 26.04H249.078C248.731 27.2667 248.144 28.3733 247.318 29.36C246.491 30.32 245.464 31.08 244.238 31.64C243.038 32.2 241.651 32.48 240.078 32.48ZM261.895 32C260.615 32 259.508 31.8 258.575 31.4C257.641 31 256.921 30.3333 256.415 29.4C255.908 28.4667 255.655 27.2 255.655 25.6V15.24H252.175V11.84H255.655L256.135 6.8H259.655V11.84H265.375V15.24H259.655V25.64C259.655 26.7867 259.895 27.5733 260.375 28C260.855 28.4 261.681 28.6 262.855 28.6H265.175V32H261.895Z" fill="currentColor"/>
</svg>
