<svg width="285" height="36" viewBox="0 0 285 36" fill="none" xmlns="http://www.w3.org/2000/svg">
<path d="M30.0032 12.8561C30.4186 12.8563 30.7556 13.1932 30.7556 13.6088V28.7076C30.7556 30.8179 29.0447 32.5287 26.9344 32.5288H3.8212C1.71096 32.5287 4.10075e-05 30.8179 0 28.7076V13.6088C4.10075e-05 13.1932 0.337082 12.8563 0.752556 12.8561H4.81445V24.6581C4.81445 26.0651 5.95499 27.2056 7.36194 27.2056H23.3932C24.8 27.2056 25.9405 26.0651 25.9405 24.6581V12.8561H30.0032Z" fill="currentColor"/>
<path d="M16.1181 3.73644C16.3475 3.32003 16.9711 3.41366 17.0682 3.87905L18.2434 9.5205C18.2739 9.66683 18.3667 9.79253 18.4977 9.86465L23.5453 12.6447C23.9617 12.8741 23.868 13.4976 23.4027 13.5946L17.7612 14.7698C17.6149 14.8003 17.4892 14.8933 17.4171 15.0242L14.6371 20.0718C14.4077 20.4882 13.7841 20.3946 13.6871 19.9291L12.5119 14.2877C12.4813 14.1415 12.3885 14.0157 12.2576 13.9435L7.20994 11.1635C6.79354 10.9343 6.88717 10.3105 7.35251 10.2136L12.9941 9.03836C13.1403 9.00788 13.2661 8.915 13.3381 8.78407L16.1181 3.73644Z" fill="currentColor"/>
<path d="M43.0043 33V2.70296H47.3324L62.7839 25.9451V2.70296H67.1121V33H62.7839L47.3324 9.80112V33H43.0043ZM80.4482 33.5194C78.6592 33.5194 77.1732 33.2164 75.9902 32.6105C74.8072 32.0045 73.9271 31.1966 73.35 30.1867C72.7729 29.1479 72.4844 28.0371 72.4844 26.854C72.4844 25.4113 72.8595 24.185 73.6097 23.1751C74.3599 22.1363 75.4275 21.3429 76.8125 20.7946C78.1975 20.2464 79.8567 19.9723 81.7899 19.9723H87.4598C87.4598 18.7027 87.2722 17.6495 86.8971 16.8127C86.522 15.9759 85.9593 15.3556 85.2091 14.9516C84.4878 14.5188 83.5644 14.3024 82.4391 14.3024C81.1407 14.3024 80.0298 14.6198 79.1064 15.2546C78.1831 15.8605 77.606 16.7694 77.3752 17.9813H73.047C73.2202 16.452 73.7395 15.1536 74.6052 14.086C75.4997 12.9895 76.6394 12.1527 78.0244 11.5757C79.4094 10.9697 80.881 10.6668 82.4391 10.6668C84.4878 10.6668 86.2046 11.0274 87.5896 11.7488C88.9746 12.4701 90.0134 13.4945 90.7059 14.8218C91.4272 16.1202 91.7879 17.6784 91.7879 19.4962V33H88.0224L87.6762 29.3211C87.3588 29.8982 86.9837 30.4464 86.5509 30.9658C86.118 31.4851 85.5987 31.9324 84.9927 32.3075C84.4156 32.6826 83.7376 32.9711 82.9585 33.1731C82.2083 33.404 81.3715 33.5194 80.4482 33.5194ZM81.2705 30.0136C82.1939 30.0136 83.0306 29.826 83.7808 29.4509C84.5311 29.0758 85.1659 28.5709 85.6852 27.9361C86.2335 27.2724 86.6374 26.5366 86.8971 25.7287C87.1857 24.8919 87.3444 24.0407 87.3732 23.1751V23.0453H82.2227C80.982 23.0453 79.9721 23.204 79.193 23.5214C78.4428 23.8099 77.8946 24.2139 77.5483 24.7332C77.2021 25.2526 77.0289 25.8586 77.0289 26.5511C77.0289 27.2724 77.1876 27.8928 77.505 28.4122C77.8513 28.9027 78.3418 29.2922 78.9766 29.5808C79.6114 29.8693 80.376 30.0136 81.2705 30.0136ZM97.3124 33V11.1861H101.208L101.467 14.9083C102.16 13.6099 103.141 12.5856 104.411 11.8354C105.68 11.0563 107.137 10.6668 108.782 10.6668C110.513 10.6668 111.999 11.013 113.24 11.7055C114.481 12.398 115.447 13.4512 116.14 14.8651C116.832 16.2501 117.179 17.9958 117.179 20.1021V33H112.85V20.5349C112.85 18.5151 112.403 16.9858 111.509 15.9471C110.614 14.9083 109.316 14.389 107.613 14.389C106.488 14.389 105.478 14.6631 104.584 15.2113C103.689 15.7307 102.968 16.5098 102.42 17.5485C101.9 18.5873 101.641 19.8569 101.641 21.3573V33H97.3124ZM132.67 33.5194C130.621 33.5194 128.774 33.0433 127.13 32.0911C125.514 31.1389 124.23 29.8116 123.278 28.1092C122.354 26.3779 121.893 24.387 121.893 22.1363C121.893 19.828 122.369 17.8226 123.321 16.1202C124.273 14.389 125.571 13.0472 127.216 12.095C128.861 11.1428 130.708 10.6668 132.756 10.6668C134.834 10.6668 136.68 11.1428 138.296 12.095C139.912 13.0472 141.182 14.3745 142.105 16.0769C143.057 17.7793 143.533 19.7847 143.533 22.0931C143.533 24.4014 143.057 26.4068 142.105 28.1092C141.182 29.8116 139.898 31.1389 138.253 32.0911C136.608 33.0433 134.747 33.5194 132.67 33.5194ZM132.67 29.7972C133.853 29.7972 134.92 29.5086 135.872 28.9315C136.854 28.3545 137.633 27.5033 138.21 26.3779C138.816 25.2238 139.119 23.7955 139.119 22.0931C139.119 20.3907 138.83 18.9768 138.253 17.8515C137.676 16.6973 136.897 15.8317 135.916 15.2546C134.964 14.6775 133.91 14.389 132.756 14.389C131.602 14.389 130.534 14.6775 129.553 15.2546C128.572 15.8317 127.779 16.6973 127.173 17.8515C126.596 18.9768 126.307 20.3907 126.307 22.0931C126.307 23.7955 126.596 25.2238 127.173 26.3779C127.779 27.5033 128.558 28.3545 129.51 28.9315C130.491 29.5086 131.544 29.7972 132.67 29.7972ZM148.841 33V2.70296H159.185C161.609 2.70296 163.6 3.10692 165.158 3.91484C166.716 4.72276 167.87 5.8048 168.621 7.16095C169.371 8.51711 169.746 10.0608 169.746 11.7921C169.746 13.4368 169.371 14.9516 168.621 16.3366C167.899 17.6928 166.76 18.7892 165.201 19.626C163.643 20.4339 161.638 20.8379 159.185 20.8379H153.169V33H148.841ZM153.169 17.2455H159.012C161.292 17.2455 162.908 16.755 163.86 15.774C164.841 14.7641 165.331 13.4368 165.331 11.7921C165.331 10.032 164.841 8.6758 163.86 7.72361C162.908 6.77142 161.292 6.29532 159.012 6.29532H153.169V17.2455ZM182.925 33.5194C180.877 33.5194 179.03 33.0433 177.385 32.0911C175.769 31.1389 174.485 29.8116 173.533 28.1092C172.61 26.3779 172.148 24.387 172.148 22.1363C172.148 19.828 172.624 17.8226 173.576 16.1202C174.529 14.389 175.827 13.0472 177.472 12.095C179.116 11.1428 180.963 10.6668 183.012 10.6668C185.089 10.6668 186.936 11.1428 188.552 12.095C190.168 13.0472 191.437 14.3745 192.361 16.0769C193.313 17.7793 193.789 19.7847 193.789 22.0931C193.789 24.4014 193.313 26.4068 192.361 28.1092C191.437 29.8116 190.153 31.1389 188.509 32.0911C186.864 33.0433 185.003 33.5194 182.925 33.5194ZM182.925 29.7972C184.108 29.7972 185.176 29.5086 186.128 28.9315C187.109 28.3545 187.888 27.5033 188.465 26.3779C189.071 25.2238 189.374 23.7955 189.374 22.0931C189.374 20.3907 189.086 18.9768 188.509 17.8515C187.931 16.6973 187.152 15.8317 186.171 15.2546C185.219 14.6775 184.166 14.389 183.012 14.389C181.858 14.389 180.79 14.6775 179.809 15.2546C178.828 15.8317 178.034 16.6973 177.428 17.8515C176.851 18.9768 176.563 20.3907 176.563 22.0931C176.563 23.7955 176.851 25.2238 177.428 26.3779C178.034 27.5033 178.813 28.3545 179.766 28.9315C180.747 29.5086 181.8 29.7972 182.925 29.7972ZM208.965 33.5194C206.858 33.5194 204.983 33.0433 203.338 32.0911C201.693 31.11 200.395 29.7683 199.443 28.0659C198.52 26.3635 198.058 24.387 198.058 22.1363C198.058 19.8569 198.52 17.8659 199.443 16.1635C200.395 14.4322 201.693 13.0905 203.338 12.1383C204.983 11.1573 206.858 10.6668 208.965 10.6668C211.619 10.6668 213.841 11.3593 215.63 12.7443C217.419 14.1293 218.559 16.0048 219.049 18.3709H214.548C214.26 17.1013 213.596 16.1202 212.557 15.4277C211.547 14.7352 210.335 14.389 208.921 14.389C207.767 14.389 206.7 14.6919 205.719 15.2979C204.738 15.875 203.944 16.7406 203.338 17.8948C202.761 19.0201 202.473 20.4195 202.473 22.0931C202.473 23.3338 202.646 24.4447 202.992 25.4257C203.338 26.3779 203.8 27.1859 204.377 27.8495C204.983 28.5132 205.675 29.0181 206.454 29.3644C207.234 29.6818 208.056 29.8405 208.921 29.8405C209.874 29.8405 210.725 29.6962 211.475 29.4076C212.254 29.0902 212.903 28.6286 213.423 28.0226C213.971 27.4167 214.346 26.6953 214.548 25.8586H219.049C218.559 28.1669 217.419 30.028 215.63 31.4419C213.841 32.8269 211.619 33.5194 208.965 33.5194ZM237.834 33L227.793 21.0543L236.882 11.1861H242.119L231.298 22.7423V19.4962L243.287 33H237.834ZM224.114 33V1.83733H228.442V33H224.114ZM255.158 33.5194C253.08 33.5194 251.233 33.0433 249.618 32.0911C248.002 31.1389 246.732 29.8116 245.809 28.1092C244.914 26.4068 244.467 24.4303 244.467 22.1796C244.467 19.8713 244.914 17.8659 245.809 16.1635C246.732 14.4322 248.002 13.0905 249.618 12.1383C251.233 11.1573 253.109 10.6668 255.244 10.6668C257.379 10.6668 259.212 11.1428 260.741 12.095C262.27 13.0472 263.453 14.3168 264.29 15.9038C265.127 17.4619 265.545 19.1932 265.545 21.0976C265.545 21.3861 265.531 21.7035 265.502 22.0498C265.502 22.3672 265.487 22.7279 265.459 23.1318H247.627V20.0588H261.217C261.13 18.241 260.525 16.8272 259.399 15.8172C258.274 14.7785 256.874 14.2591 255.201 14.2591C254.018 14.2591 252.936 14.5332 251.955 15.0815C250.974 15.6008 250.18 16.3799 249.574 17.4187C248.997 18.4286 248.709 19.7126 248.709 21.2707V22.4826C248.709 24.0984 248.997 25.469 249.574 26.5943C250.18 27.6908 250.974 28.5276 251.955 29.1047C252.936 29.6529 254.003 29.927 255.158 29.927C256.543 29.927 257.682 29.624 258.577 29.0181C259.471 28.4122 260.135 27.5898 260.568 26.5511H264.896C264.521 27.8784 263.886 29.0758 262.992 30.1434C262.097 31.1822 260.986 32.0045 259.659 32.6105C258.36 33.2164 256.86 33.5194 255.158 33.5194ZM278.765 33C277.38 33 276.182 32.7836 275.172 32.3508C274.162 31.918 273.383 31.1966 272.835 30.1867C272.287 29.1768 272.013 27.8062 272.013 26.075V14.8651H268.247V11.1861H272.013L272.532 5.73266H276.341V11.1861H282.53V14.8651H276.341V26.1182C276.341 27.359 276.601 28.2102 277.12 28.6719C277.639 29.1047 278.534 29.3211 279.803 29.3211H282.314V33H278.765Z" fill="currentColor"/>
</svg>
